<?xml version="1.0" encoding="utf-8"?>
<!-- Generator: Adobe Illustrator 22.1.0, SVG Export Plug-In . SVG Version: 6.00 Build 0)  -->
<svg version="1.1" id="Calque_1" xmlns="http://www.w3.org/2000/svg" xmlns:xlink="http://www.w3.org/1999/xlink" x="0px" y="0px"
	 viewBox="0 0 640 480" style="enable-background:new 0 0 640 480;" xml:space="preserve">
<style type="text/css">
	.st0{fill:#FFFFFF;}
</style>
<g id="XMLID_1419_">
	<path class="st0" d="M369,189.7c-5.5-5.5-13.1-8.9-21.5-8.9c-8.4,0-16,3.4-21.5,8.9c-5.5,5.5-8.9,13.1-8.9,21.5
		c0,16.8,13.6,30.3,30.3,30.3c8.4,0,16-3.4,21.5-8.9c5.5-5.5,8.9-13.1,8.9-21.5C377.9,202.8,374.5,195.2,369,189.7z M356,199.3
		c0,0-2.9,0-4,0c-1.4,0-1.7,0.6-1.7,2c0,1.2,0,3.5,0,3.5h5.7l-0.5,6.2h-5.2v18.5H343v-18.4h-3.8v-6.3h3.8c0,0,0-0.9,0-4.9
		c0-4.6,2.5-7,8-7c0.9,0,5.1,0,5.1,0V199.3z"/>
</g>
</svg>
