<?xml version="1.0" encoding="utf-8"?>
<!-- Generator: Adobe Illustrator 22.1.0, SVG Export Plug-In . SVG Version: 6.00 Build 0)  -->
<svg version="1.1" id="Calque_1" xmlns="http://www.w3.org/2000/svg" xmlns:xlink="http://www.w3.org/1999/xlink" x="0px" y="0px"
	 viewBox="0 0 640 480" style="enable-background:new 0 0 640 480;" xml:space="preserve">
<style type="text/css">
	.st0{fill:#B68836;}
</style>
<g>
	<path class="st0" d="M374.7,210.7c-3.1,0-5.5,2.5-5.5,5.6c0,3.1,2.5,5.5,5.5,5.5c3.1,0,5.6-2.5,5.6-5.5
		C380.2,213.2,377.7,210.7,374.7,210.7z"/>
	<path class="st0" d="M387.6,206.5c-0.3-0.8-0.7-1.3-1.2-1.9c-0.6-0.6-1.1-0.9-1.9-1.2c-0.6-0.2-1.5-0.5-3.1-0.6
		c-1.8-0.1-2.3-0.1-6.7-0.1c-4.4,0-5,0-6.7,0.1c-1.6,0.1-2.5,0.3-3.1,0.6c-0.8,0.3-1.3,0.7-1.9,1.2c-0.6,0.6-0.9,1.1-1.2,1.9
		c-0.2,0.6-0.5,1.5-0.6,3.1c-0.1,1.8-0.1,2.3-0.1,6.7c0,4.4,0,5,0.1,6.7c0.1,1.6,0.4,2.5,0.6,3.1c0.3,0.8,0.7,1.3,1.2,1.9
		c0.6,0.6,1.1,0.9,1.9,1.2c0.6,0.2,1.5,0.5,3.1,0.6c1.8,0.1,2.3,0.1,6.7,0.1c4.4,0,5,0,6.7-0.1c1.6-0.1,2.5-0.3,3.1-0.6
		c0.8-0.3,1.3-0.7,1.9-1.2c0.6-0.6,0.9-1.1,1.2-1.9c0.2-0.6,0.5-1.5,0.6-3.1c0.1-1.8,0.1-2.3,0.1-6.7c0-4.4,0-5-0.1-6.7
		C388.1,207.9,387.9,207.1,387.6,206.5z M374.7,224.8c-4.7,0-8.5-3.8-8.5-8.5c0-4.7,3.8-8.5,8.5-8.5c4.7,0,8.5,3.8,8.5,8.5
		C383.2,221,379.4,224.8,374.7,224.8z M383.5,209.4c-1.1,0-2-0.9-2-2c0-1.1,0.9-2,2-2c1.1,0,2,0.9,2,2
		C385.5,208.5,384.6,209.4,383.5,209.4z"/>
	<path class="st0" d="M396.1,194.8c-5.5-5.5-13.1-8.9-21.5-8.9c-8.4,0-16,3.4-21.5,8.9c-5.5,5.5-8.9,13.1-8.9,21.5
		c0,16.8,13.6,30.3,30.3,30.3c8.4,0,16-3.4,21.5-8.9c5.5-5.5,8.9-13.1,8.9-21.5C405,207.9,401.6,200.3,396.1,194.8z M391.2,223.1
		c-0.1,1.8-0.4,3-0.8,4c-0.4,1.1-1,2-1.9,2.9c-0.9,0.9-1.9,1.5-2.9,1.9c-1.1,0.4-2.3,0.7-4,0.8c-1.8,0.1-2.3,0.1-6.9,0.1
		c-4.5,0-5.1,0-6.9-0.1c-1.8-0.1-3-0.4-4-0.8c-1.1-0.4-2-1-2.9-1.9c-0.9-0.9-1.5-1.9-1.9-2.9c-0.4-1.1-0.7-2.3-0.8-4
		c-0.1-1.8-0.1-2.3-0.1-6.9c0-4.5,0-5.1,0.1-6.9c0.1-1.8,0.4-3,0.8-4c0.4-1.1,1-2,1.9-2.9c0.9-0.9,1.9-1.5,2.9-1.9
		c1.1-0.4,2.3-0.7,4-0.8c1.8-0.1,2.3-0.1,6.9-0.1c4.5,0,5.1,0,6.9,0.1c1.8,0.1,3,0.4,4,0.8c1.1,0.4,2,1,2.9,1.9
		c0.9,0.9,1.5,1.9,1.9,2.9c0.4,1.1,0.7,2.3,0.8,4c0.1,1.8,0.1,2.3,0.1,6.9C391.3,220.8,391.3,221.4,391.2,223.1z"/>
</g>
</svg>
