<?xml version="1.0" encoding="utf-8"?>
<!-- Generator: Adobe Illustrator 22.1.0, SVG Export Plug-In . SVG Version: 6.00 Build 0)  -->
<svg version="1.1" id="Calque_1" xmlns="http://www.w3.org/2000/svg" xmlns:xlink="http://www.w3.org/1999/xlink" x="0px" y="0px"
	 viewBox="0 0 124 100" style="enable-background:new 0 0 124 100;" xml:space="preserve">
<g>
	<path d="M20.8,63.5h4.7V27.2h-4.7V63.5z M22.1,28.5h2v33.7h-2V28.5z"/>
	<path d="M97.2,18v45.5h4.5V18H97.2z M100.4,62.2h-1.9V19.3h1.9V62.2z"/>
	<rect x="26.8" y="36.9" width="69.1" height="1.3"/>
	<path d="M81.1,27.2l-0.4,0c-7.9,0.2-14,5.9-14.2,6.1L65.8,34l0.8,0.4c0,0,0.2,0.1,0.7,0.4c0.4,0.2,1,0.5,1.6,0.7h3.9
		c-0.7-0.2-1.4-0.5-2-0.7c-0.5-0.2-1-0.4-1.4-0.5c-0.5-0.2-1-0.4-1.3-0.6c1.8-1.5,6.8-5,12.6-5.2l0.3,0c5.7,0,10.7,3.3,12.6,4.6
		c-1.1,0.6-3,1.6-5.4,2.4h3.7c1.1-0.5,2-1,2.6-1.3c0.4-0.2,0.6-0.4,0.6-0.4l0.7-0.5l-0.6-0.6C95,32.5,88.8,27.2,81.1,27.2z"/>
	<rect x="26.8" y="51.4" width="69.1" height="1.3"/>
	<rect x="26.8" y="45.8" width="69.1" height="1.3"/>
	<path d="M33.1,35.8h17.4c0.4,0,0.8-0.3,0.8-0.8c0-0.4-0.3-0.8-0.8-0.8H33.1c-0.4,0-0.8,0.3-0.8,0.8C32.4,35.5,32.7,35.8,33.1,35.8z
		"/>
	<path d="M33.1,33.2h17.4c0.4,0,0.8-0.3,0.8-0.8c0-0.4-0.3-0.8-0.8-0.8H33.1c-0.4,0-0.8,0.3-0.8,0.8C32.4,32.9,32.7,33.2,33.1,33.2z
		"/>
	<path d="M33.1,30.6h17.4c0.4,0,0.8-0.3,0.8-0.8c0-0.4-0.3-0.8-0.8-0.8H33.1c-0.4,0-0.8,0.3-0.8,0.8C32.4,30.3,32.7,30.6,33.1,30.6z
		"/>
</g>
</svg>
