<?xml version="1.0" encoding="utf-8"?>
<!-- Generator: Adobe Illustrator 22.1.0, SVG Export Plug-In . SVG Version: 6.00 Build 0)  -->
<svg version="1.1" id="Calque_1" xmlns="http://www.w3.org/2000/svg" xmlns:xlink="http://www.w3.org/1999/xlink" x="0px" y="0px"
	 viewBox="0 0 65 85" style="enable-background:new 0 0 65 85;" xml:space="preserve">
<g>
	<path d="M13.9,20.1c0.9,0,2-0.3,3-0.8c1-0.5,1.8-1.1,2.4-1.8c0.9-1.1,0.7-1.9,0.6-2.3c-0.2-0.4-0.7-1-2-1c-0.9,0-2,0.3-3,0.8
		c-1,0.5-1.8,1.1-2.4,1.8c-0.9,1.1-0.7,1.9-0.6,2.3C12.1,19.5,12.6,20.1,13.9,20.1z M15.5,16.4c0.8-0.4,1.7-0.6,2.4-0.6
		c0.4,0,0.6,0.1,0.6,0.1c0.1,0.2-0.5,1.2-2.2,2.1c-0.8,0.4-1.7,0.6-2.4,0.6c-0.4,0-0.6-0.1-0.6-0.1C13.2,18.3,13.8,17.3,15.5,16.4z"
		/>
	<path d="M5.9,53.8l45.2-22.3l-0.3-0.7c-4.3-8.6-12.9-13.9-22.5-13.9c-3.9,0-7.6,0.9-11.1,2.6C4.7,25.7-0.5,40.7,5.6,53.1L5.9,53.8z
		 M17.7,20.9c3.3-1.6,6.8-2.5,10.5-2.5c8.8,0,16.7,4.7,20.8,12.4l-42.5,21C1.4,40.3,6.3,26.5,17.7,20.9z"/>
	<path d="M8.2,50.2c0.1,0,0.2,0,0.3,0c0.4-0.1,0.6-0.6,0.4-1C6.1,41.7,8.1,33,13.9,26.9c0.3-0.3,0.3-0.8,0-1.1
		c-0.3-0.3-0.8-0.3-1.1,0c-6.3,6.5-8.4,15.8-5.4,23.8C7.6,50,7.9,50.2,8.2,50.2z"/>
	<path d="M59.1,58.9H38.4H22.9H5.4c-1,0-1.8,0.8-1.8,1.8c0,1,0.8,1.8,1.8,1.8h53.7c1,0,1.8-0.8,1.8-1.8
		C60.9,59.7,60.1,58.9,59.1,58.9z M59.1,61.4H5.4c-0.4,0-0.7-0.3-0.7-0.7C4.7,60.3,5,60,5.4,60h53.7c0.4,0,0.7,0.3,0.7,0.7
		C59.8,61.1,59.5,61.4,59.1,61.4z"/>
	<path d="M43.7,55.3c0.2,1.4,1.4,2.5,2.9,2.5h4.9c1.5,0,2.7-1.1,2.9-2.5l1.2-9.2h-13L43.7,55.3z M54.2,47.2l-1,7.9
		c-0.1,0.9-0.9,1.6-1.8,1.6h-4.9c-0.9,0-1.7-0.7-1.8-1.6l-1-7.9H54.2z"/>
	<path d="M55.7,54.8c-0.1,0-0.1,0-0.2-0.1l-0.1,0.7c0,0.2-0.1,0.3-0.1,0.4c0.1,0,0.2,0,0.2,0.1c0.1,0,0.2,0,0.4,0
		c1.6,0,3-1.6,3.4-3.7c0.2-1.4-0.1-2.7-0.7-3.7c-0.4-0.6-1-0.9-1.6-1c-0.2,0-0.3,0-0.5,0l-0.1,1.1c0.1,0,0.2,0,0.3,0
		c0.1,0,0.1,0,0.2,0c0.4,0.1,0.7,0.4,0.9,0.6c0.5,0.7,0.7,1.8,0.5,2.8C57.9,53.6,56.7,55,55.7,54.8z"/>
	<path d="M49.1,35.7c-0.4-0.2-0.8,0-1,0.4c-1.2,2.7-0.6,3.9,0,5c0.4,0.9,0.8,1.6,0,3.5c-0.2,0.4,0,0.8,0.4,1c0.1,0,0.2,0.1,0.3,0.1
		c0.3,0,0.6-0.2,0.7-0.5c1-2.5,0.4-3.6-0.1-4.7c-0.5-1-0.8-1.7,0.1-3.8C49.7,36.3,49.5,35.9,49.1,35.7z"/>
	<path d="M45.9,35.7c-0.4-0.2-0.8,0-1,0.4c-1.2,2.7-0.6,3.9,0,5c0.4,0.9,0.8,1.6,0,3.5c-0.2,0.4,0,0.8,0.4,1c0.1,0,0.2,0.1,0.3,0.1
		c0.3,0,0.6-0.2,0.7-0.5c1-2.5,0.4-3.6-0.1-4.7c-0.5-1-0.8-1.7,0.1-3.8C46.5,36.3,46.3,35.9,45.9,35.7z"/>
	<path d="M51.3,41.1c0.4,0.9,0.8,1.6,0,3.5c-0.2,0.4,0,0.8,0.4,1c0.1,0,0.2,0.1,0.3,0.1c0.3,0,0.6-0.2,0.7-0.5
		c1-2.5,0.4-3.6-0.1-4.7c-0.5-1-0.8-1.7,0.1-3.8c0.2-0.4,0-0.8-0.4-1c-0.4-0.2-0.8,0-1,0.4C50.2,38.8,50.8,40,51.3,41.1z"/>
	<path d="M31.7,56.9l0,0.9h1.1V57l8-2.1c0.4-0.1,0.6-0.5,0.6-0.9c-0.1-0.4-0.4-0.7-0.8-0.7h-31c-0.4,0-0.7,0.3-0.8,0.7
		c-0.1,0.4,0.2,0.8,0.6,0.9l7.9,2.1v0.8h1.1l0-1c0-0.4-0.3-0.8-0.7-0.9l-5.7-1.5h26l-5.7,1.5C32,56,31.7,56.4,31.7,56.9z"/>
	<path d="M30.2,51.5l1.9,0.8H35l-4.4-1.8c-3.5-1.5-7.6-1.5-11.1,0l-4.6,1.8h2.9l2-0.8C23.2,50.1,26.9,50.1,30.2,51.5z"/>
</g>
</svg>
