<?xml version="1.0" encoding="utf-8"?>
<!-- Generator: Adobe Illustrator 22.1.0, SVG Export Plug-In . SVG Version: 6.00 Build 0)  -->
<svg version="1.1" id="Calque_1" xmlns="http://www.w3.org/2000/svg" xmlns:xlink="http://www.w3.org/1999/xlink" x="0px" y="0px"
	 viewBox="0 0 124 100" style="enable-background:new 0 0 124 100;" xml:space="preserve">
<style type="text/css">
	.st0{fill:#FFFFFF;}
</style>
<g>
	<rect x="34.7" y="75.2" class="st0" width="39.6" height="1.3"/>
	<rect x="34.7" y="67.8" class="st0" width="39.6" height="1.3"/>
	<path class="st0" d="M36.4,62.2h35.3l1.3-1.2l7.6,0.5L79.1,36h-5.2c-0.1-0.1-0.2-0.1-0.3-0.1h-1.2v-4c0.4-0.1,0.7-0.2,1.1-0.5
		c1.2-0.9,1.9-2.6,1.9-4.5c0-0.6-0.1-1.2-0.2-1.8L75,24.6h-6.7l-0.2,0.6c-0.2,0.6-0.2,1.2-0.2,1.8c0,1.9,0.7,3.6,2,4.5
		c0.3,0.2,0.7,0.3,1,0.4v4h-1.2c-0.1,0-0.2,0-0.3,0.1h-3.5c-0.1-0.1-0.2-0.1-0.3-0.1h-1.2v-4c0.4-0.1,0.7-0.2,1.1-0.5
		c1.2-0.9,1.9-2.6,1.9-4.5c0-0.6-0.1-1.2-0.2-1.8l-0.2-0.6h-6.7l-0.2,0.6c-0.2,0.6-0.2,1.2-0.2,1.8c0,1.9,0.7,3.6,2,4.5
		c0.3,0.2,0.7,0.3,1,0.4v4h-1.2c-0.1,0-0.2,0-0.3,0.1h-2.7c0,0,0-0.1,0-0.1V22.8c0-1-0.4-1.9-1.1-2.6l-0.5-0.5
		c-0.4-0.4-0.6-1-0.6-1.6l0-7.6h-4.1v7.6c0,0.6-0.2,1.1-0.6,1.6L51,20.2c-0.7,0.7-1.1,1.7-1.1,2.6v4.6c0.5,0.4,0.9,0.8,1.3,1.2v-5.8
		c0-0.6,0.3-1.2,0.7-1.7l0.5-0.5c0.6-0.7,1-1.6,1-2.5v-6.3h1.5l0,6.3c0,0.9,0.4,1.8,1,2.5l0.5,0.5c0.5,0.5,0.7,1.1,0.7,1.7v13.1
		c0,0,0,0.1-0.1,0.1h-3.9c-0.4-5.4-4.9-9.8-10.4-9.8c-5.5,0-10.1,4.3-10.4,9.8h-2.4l-1.6,25.5h6.5L36.4,62.2z M70.7,30.3
		c-0.8-0.6-1.3-1.9-1.3-3.3c0-0.3,0-0.6,0.1-0.9h4.4c0,0.3,0.1,0.6,0.1,0.9c0,1.4-0.5,2.7-1.3,3.3C71.9,30.7,71.2,30.6,70.7,30.3z
		 M62.5,30.3c-0.8-0.6-1.3-1.9-1.3-3.3c0-0.3,0-0.6,0.1-0.9h4.4c0,0.3,0.1,0.6,0.1,0.9c0,1.4-0.5,2.7-1.3,3.3
		C63.8,30.7,63.1,30.6,62.5,30.3z M42.7,27.6c4.8,0,8.7,3.7,9.1,8.4l-18.3,0C33.9,31.3,37.9,27.6,42.7,27.6z M31.1,37.3h30
		c0.1,0.1,0.2,0.1,0.3,0.1h4c0.1,0,0.2,0,0.3-0.1h3.5c0.1,0.1,0.2,0.1,0.3,0.1h4c0.1,0,0.2,0,0.3-0.1h3.9l1.4,22.8l-6.6-0.5
		l-1.4,1.2H36.7l-1.7-0.7h-5.3L31.1,37.3z"/>
	<path class="st0" d="M75.6,62.5v18.2L78,86c0.1,0.3,0.5,0.5,0.9,0.3c0.3-0.1,0.5-0.5,0.3-0.9l-2.2-5.1V62.6L75.6,62.5z"/>
	<path class="st0" d="M79.3,82.4l0.9,2c0.3,0.4,0.5,0.8,0.5,1.3c0,1.1-0.9,2-2,2c-1,0-1.8-0.7-2-1.6L75.7,84c-0.3,0.5-0.4,1-0.4,1.6
		c0,1.9,1.5,3.4,3.4,3.4c1.9,0,3.4-1.5,3.4-3.4C81.9,84,80.8,82.7,79.3,82.4z"/>
	<path class="st0" d="M32.1,62.8v18l2.2,5.2c0.1,0.3,0.4,0.4,0.6,0.4c0.1,0,0.2,0,0.3-0.1c0.3-0.1,0.5-0.5,0.4-0.9l-2.1-4.9V62.8
		H32.1z"/>
	<path class="st0" d="M35.6,82.4l0.9,2c0.3,0.3,0.4,0.8,0.4,1.2c0,1.1-0.9,2-2,2c-1,0-1.8-0.7-2-1.7L32,84c-0.3,0.5-0.5,1.1-0.5,1.7
		c0,1.9,1.5,3.4,3.4,3.4c1.9,0,3.4-1.5,3.4-3.4C38.2,84.1,37.1,82.7,35.6,82.4z"/>
	<path class="st0" d="M95.2,23.4h-6.6v3.2h6.6c0.6,0,1-0.4,1-1v-1.2C96.2,23.8,95.7,23.4,95.2,23.4z"/>
	<path class="st0" d="M41.7,25.6h2.1c0.4,0,0.8-0.3,0.8-0.8c0-0.4-0.3-0.8-0.8-0.8h-2.1c-0.4,0-0.8,0.3-0.8,0.8
		C40.9,25.3,41.2,25.6,41.7,25.6z"/>
	<path class="st0" d="M77.5,29v5.7H79V29c0-1.8,1.5-3.3,3.3-3.3h4.8v-1.5h-4.8C79.7,24.2,77.5,26.4,77.5,29z"/>
</g>
</svg>
