<?xml version="1.0" encoding="utf-8"?>
<!-- Generator: Adobe Illustrator 22.1.0, SVG Export Plug-In . SVG Version: 6.00 Build 0)  -->
<svg version="1.1" id="Calque_1" xmlns="http://www.w3.org/2000/svg" xmlns:xlink="http://www.w3.org/1999/xlink" x="0px" y="0px"
	 viewBox="0 0 640 480" style="enable-background:new 0 0 640 480;" xml:space="preserve">
<style type="text/css">
	.st0{fill:#FFFFFF;}
</style>
<g id="XMLID_1449_">
	<g>
		<path class="st0" d="M315.3,139.8c-5.5-5.5-13.1-8.9-21.5-8.9c-8.4,0-16,3.4-21.5,8.9c-5.5,5.5-8.9,13.1-8.9,21.5
			c0,16.8,13.6,30.3,30.3,30.3c8.4,0,16-3.4,21.5-8.9c5.5-5.5,8.9-13.1,8.9-21.5C324.2,152.9,320.8,145.3,315.3,139.8z M306.7,154.7
			c0.4,9.3-6.5,19.7-18.9,19.7c-3.7,0-7.2-1.1-10.2-3c3.5,0.4,7-0.6,9.8-2.7c-2.9-0.1-5.4-2-6.2-4.6c1,0.2,2.1,0.1,3-0.1
			c-3.2-0.6-5.4-3.5-5.3-6.6c0.9,0.5,1.9,0.8,3,0.8c-3-2-3.8-5.9-2.1-8.9c3.3,4,8.2,6.7,13.7,6.9c-1-4.2,2.2-8.1,6.5-8.1
			c1.9,0,3.6,0.8,4.8,2.1c1.5-0.3,2.9-0.9,4.2-1.6c-0.5,1.6-1.5,2.9-2.9,3.7c1.3-0.2,2.6-0.5,3.8-1
			C309.1,152.6,308,153.8,306.7,154.7z"/>
	</g>
</g>
</svg>
