<?xml version="1.0" encoding="utf-8"?>
<!-- Generator: Adobe Illustrator 22.1.0, SVG Export Plug-In . SVG Version: 6.00 Build 0)  -->
<svg version="1.1" id="Calque_1" xmlns="http://www.w3.org/2000/svg" xmlns:xlink="http://www.w3.org/1999/xlink" x="0px" y="0px"
	 viewBox="0 0 640 480" style="enable-background:new 0 0 640 480;" xml:space="preserve">
<style type="text/css">
	.st0{fill:#FFFFFF;}
</style>
<g>
	<path class="st0" d="M385.7,160.8c-5.5-5.5-13.1-8.9-21.5-8.9c-8.4,0-16,3.4-21.5,8.9c-5.5,5.5-8.9,13.1-8.9,21.5
		c0,16.8,13.6,30.3,30.3,30.3c8.4,0,16-3.4,21.5-8.9c5.5-5.5,8.9-13.1,8.9-21.5C394.6,173.8,391.2,166.3,385.7,160.8z M383.2,198.3
		c-3.8,1-19,1-19,1s-15.2,0-19-1c-2.1-0.6-3.7-2.2-4.3-4.3c-1-3.8-1-11.8-1-11.8s0-8,1-11.8c0.6-2.1,2.2-3.8,4.3-4.3
		c3.8-1,19-1,19-1s15.2,0,19,1c2.1,0.6,3.7,2.2,4.3,4.3c1,3.8,1,11.8,1,11.8s0,8-1,11.8C387,196.1,385.3,197.7,383.2,198.3z"/>
	<polygon class="st0" points="359.3,189.4 372,182.2 359.3,175 	"/>
</g>
</svg>
